<svg width="70" height="50" viewBox="0 0 70 50" fill="none" xmlns="http://www.w3.org/2000/svg">
<rect width="70" height="44" rx="6" fill="#179E7E"/>
<rect x="35" y="38.3431" width="8.00002" height="8.00002" transform="rotate(45 35 38.3431)" fill="#179E7E"/>
<path d="M17.4438 24.2734L19.6938 24.0547C19.8292 24.8099 20.1026 25.3646 20.5141 25.7188C20.9307 26.0729 21.4906 26.25 22.1938 26.25C22.9385 26.25 23.4984 26.0938 23.8734 25.7812C24.2536 25.4635 24.4438 25.0938 24.4438 24.6719C24.4438 24.401 24.363 24.1719 24.2016 23.9844C24.0453 23.7917 23.7693 23.625 23.3734 23.4844C23.1026 23.3906 22.4854 23.224 21.5219 22.9844C20.2823 22.6771 19.4125 22.2995 18.9125 21.8516C18.2094 21.2214 17.8578 20.4531 17.8578 19.5469C17.8578 18.9635 18.0219 18.4193 18.35 17.9141C18.6833 17.4036 19.1599 17.0156 19.7797 16.75C20.4047 16.4844 21.1573 16.3516 22.0375 16.3516C23.475 16.3516 24.5557 16.6667 25.2797 17.2969C26.0089 17.9271 26.3917 18.7682 26.4281 19.8203L24.1156 19.9219C24.0167 19.3333 23.8031 18.9115 23.475 18.6562C23.1521 18.3958 22.6651 18.2656 22.0141 18.2656C21.3422 18.2656 20.8161 18.4036 20.4359 18.6797C20.1911 18.8568 20.0688 19.0938 20.0688 19.3906C20.0688 19.6615 20.1833 19.8932 20.4125 20.0859C20.7042 20.3307 21.4125 20.5859 22.5375 20.8516C23.6625 21.1172 24.4932 21.3932 25.0297 21.6797C25.5714 21.9609 25.9932 22.349 26.2953 22.8438C26.6026 23.3333 26.7563 23.9401 26.7563 24.6641C26.7563 25.3203 26.574 25.9349 26.2094 26.5078C25.8448 27.0807 25.3292 27.5078 24.6625 27.7891C23.9958 28.0651 23.1651 28.2031 22.1703 28.2031C20.7224 28.2031 19.6104 27.8698 18.8344 27.2031C18.0583 26.5312 17.5948 25.5547 17.4438 24.2734ZM32.4906 19.7031V21.4531H30.9906V24.7969C30.9906 25.474 31.0036 25.8698 31.0297 25.9844C31.0609 26.0938 31.126 26.1849 31.225 26.2578C31.3292 26.3307 31.4542 26.3672 31.6 26.3672C31.8031 26.3672 32.0974 26.2969 32.4828 26.1562L32.6703 27.8594C32.1599 28.0781 31.5818 28.1875 30.9359 28.1875C30.5401 28.1875 30.1833 28.1224 29.8656 27.9922C29.5479 27.8568 29.3135 27.6849 29.1625 27.4766C29.0167 27.263 28.9151 26.9766 28.8578 26.6172C28.8109 26.362 28.7875 25.8464 28.7875 25.0703V21.4531H27.7797V19.7031H28.7875V18.0547L30.9906 16.7734V19.7031H32.4906ZM35.6547 22.2344L33.6625 21.875C33.8865 21.0729 34.2719 20.4792 34.8188 20.0938C35.3656 19.7083 36.1781 19.5156 37.2563 19.5156C38.2354 19.5156 38.9646 19.6328 39.4438 19.8672C39.9229 20.0964 40.2589 20.3906 40.4516 20.75C40.6495 21.1042 40.7484 21.7578 40.7484 22.7109L40.725 25.2734C40.725 26.0026 40.7589 26.5417 40.8266 26.8906C40.8995 27.2344 41.0323 27.6042 41.225 28H39.0531C38.9958 27.8542 38.9255 27.638 38.8422 27.3516C38.8057 27.2214 38.7797 27.1354 38.7641 27.0938C38.3891 27.4583 37.988 27.7318 37.5609 27.9141C37.1339 28.0964 36.6781 28.1875 36.1938 28.1875C35.3396 28.1875 34.6651 27.9557 34.1703 27.4922C33.6807 27.0286 33.4359 26.4427 33.4359 25.7344C33.4359 25.2656 33.5479 24.849 33.7719 24.4844C33.9958 24.1146 34.3083 23.8333 34.7094 23.6406C35.1156 23.4427 35.699 23.2708 36.4594 23.125C37.4854 22.9323 38.1964 22.7526 38.5922 22.5859V22.3672C38.5922 21.9453 38.488 21.6458 38.2797 21.4688C38.0714 21.2865 37.6781 21.1953 37.1 21.1953C36.7094 21.1953 36.4047 21.2734 36.1859 21.4297C35.9672 21.5807 35.7901 21.849 35.6547 22.2344ZM38.5922 24.0156C38.3109 24.1094 37.8656 24.2214 37.2563 24.3516C36.6469 24.4818 36.2484 24.6094 36.0609 24.7344C35.7745 24.9375 35.6313 25.1953 35.6313 25.5078C35.6313 25.8151 35.7458 26.0807 35.975 26.3047C36.2042 26.5286 36.4958 26.6406 36.85 26.6406C37.2458 26.6406 37.6234 26.5104 37.9828 26.25C38.2484 26.0521 38.4229 25.8099 38.5063 25.5234C38.5635 25.3359 38.5922 24.9792 38.5922 24.4531V24.0156ZM45.0219 28H42.8266V19.7031H44.8656V20.8828C45.2146 20.3255 45.5271 19.9583 45.8031 19.7812C46.0844 19.6042 46.4021 19.5156 46.7563 19.5156C47.2563 19.5156 47.738 19.6536 48.2016 19.9297L47.5219 21.8438C47.1521 21.6042 46.8083 21.4844 46.4906 21.4844C46.1833 21.4844 45.9229 21.5703 45.7094 21.7422C45.4958 21.9089 45.3266 22.2135 45.2016 22.6562C45.0818 23.099 45.0219 24.026 45.0219 25.4375V28ZM52.9594 19.7031V21.4531H51.4594V24.7969C51.4594 25.474 51.4724 25.8698 51.4984 25.9844C51.5297 26.0938 51.5948 26.1849 51.6938 26.2578C51.7979 26.3307 51.9229 26.3672 52.0688 26.3672C52.2719 26.3672 52.5661 26.2969 52.9516 26.1562L53.1391 27.8594C52.6286 28.0781 52.0505 28.1875 51.4047 28.1875C51.0089 28.1875 50.6521 28.1224 50.3344 27.9922C50.0167 27.8568 49.7823 27.6849 49.6313 27.4766C49.4854 27.263 49.3839 26.9766 49.3266 26.6172C49.2797 26.362 49.2563 25.8464 49.2563 25.0703V21.4531H48.2484V19.7031H49.2563V18.0547L51.4594 16.7734V19.7031H52.9594Z" fill="white"/>
</svg>
