<svg width="56" height="80" viewBox="0 0 56 80" fill="none" xmlns="http://www.w3.org/2000/svg">
<rect y="24" width="56" height="56" rx="10" fill="#808080"/>
<rect y="12" width="56" height="56" rx="10" fill="#808080"/>
<rect x="3" y="3" width="50" height="50" rx="7" fill="#CCCCCC"/>
<rect x="3" y="3" width="50" height="50" rx="7" stroke="#B3B3B3" stroke-width="6"/>
<path d="M18.9712 31.0184C20.3936 31.0184 21.5452 29.8671 21.5452 28.4442C21.5452 27.0276 20.3939 25.8762 18.9712 25.8762C17.5546 25.8762 16.4033 27.0276 16.4033 28.4442C16.4033 29.8671 17.5549 31.0184 18.9712 31.0184Z" fill="#808080"/>
<path d="M33.3849 35.438C33.5043 35.3572 33.6621 35.3813 33.7512 35.4947L34.2247 36.1524C34.3075 36.2677 34.2834 36.4316 34.1679 36.5207L30.6772 39.0564C30.5638 39.1372 30.4001 39.1131 30.311 38.9996L29.8375 38.342C29.7567 38.2267 29.7808 38.0627 29.8963 37.9736L33.3849 35.438Z" fill="#808080"/>
<path d="M29.4411 32.1698L28.0551 29.7415L27.3286 30.2717L28.7128 32.7122L29.4411 32.1698Z" fill="#808080"/>
<path d="M26.2097 26.4956L20.8249 17.0432L19.793 17.0492L25.4751 27.0339L26.2097 26.4956Z" fill="#808080"/>
<path d="M31.2785 31.4982C31.5821 31.2775 31.9302 31.1076 32.3288 31.1076L37.3308 31.1136C38.3042 31.1136 39.0872 31.9028 39.0872 32.87C39.0872 33.8455 38.3042 34.6286 37.3308 34.6286L33.1563 34.6226L27.8285 38.3845C25.9506 39.7384 24.8115 38.2529 24.8115 38.2529L20.6288 34.0662C19.9266 33.2244 20.0784 31.6256 20.9201 30.9175L26.7093 26.793C27.284 26.3133 28.138 26.3884 28.6236 26.959C29.1051 27.5338 29.0282 28.3938 28.4537 28.8735L24.7486 31.5871L27.4094 34.2177L31.2785 31.4982Z" fill="#808080"/>
</svg>
